<?xml version="1.0" standalone="no"?>
<!DOCTYPE svg PUBLIC "-//W3C//DTD SVG 20010904//EN"
 "http://www.w3.org/TR/2001/REC-SVG-20010904/DTD/svg10.dtd">
<svg version="1.0" xmlns="http://www.w3.org/2000/svg"
 width="512.000000pt" height="512.000000pt" viewBox="0 0 512.000000 512.000000"
 preserveAspectRatio="xMidYMid meet">
<metadata>
Created by potrace 1.11, written by Peter Selinger 2001-2013
</metadata>
<g transform="translate(0.000000,512.000000) scale(0.100000,-0.100000)"
fill="#000000" stroke="none">
<path d="M450 5113 c-56 -9 -160 -51 -214 -86 -31 -19 -106 -95 -106 -107 0
-5 -4 -10 -9 -10 -17 0 -80 -141 -101 -224 -20 -78 -20 -112 -20 -2140 0
-1794 2 -2069 15 -2126 49 -209 188 -344 415 -400 72 -18 163 -19 2145 -19
1422 0 2086 3 2120 10 61 13 195 76 195 91 0 6 3 8 7 4 12 -12 116 108 144
165 40 81 49 106 64 178 12 56 14 358 12 1976 l-2 1910 -32 65 c-18 36 -45 80
-60 98 -46 55 -445 452 -454 452 -5 0 -9 7 -9 15 0 9 -7 18 -15 21 -8 4 -29
19 -45 34 -16 15 -60 43 -97 61 l-68 34 -1930 1 c-1062 1 -1941 -1 -1955 -3z"/>
</g>
</svg>
